<svg xmlns="http://www.w3.org/2000/svg" viewBox="0 0 769.42 550.98"><defs><style>.cls-1,.cls-3,.cls-6,.cls-7{isolation:isolate;}.cls-2,.cls-4,.cls-5{fill:none;stroke-linecap:round;stroke-linejoin:round;}.cls-2,.cls-5{stroke:#000;}.cls-2{stroke-width:5px;}.cls-3{fill:#13ff00;}.cls-3,.cls-6,.cls-7{fill-opacity:0.75;opacity:0.5;}.cls-4{stroke:#fff;}.cls-4,.cls-5{stroke-width:6px;}.cls-5{mix-blend-mode:overlay;}.cls-6{fill:#001fff;}.cls-7{fill:red;}</style></defs><g class="cls-1"><g id="maskless"><path class="cls-2" d="M1066.85,542A168.29,168.29,0,0,0,1075,350.79c-63.23-104.77-248.47-94.68-309.78,0s-29.89,208-19.57,231.79,58.94,125,68.8,153.33S964,717,988.49,678.18" transform="translate(-333.95 -235.97)"/><path class="cls-2" d="M800.19,422.67s49.47-6.34,57.26,55.83S816.32,571.57,818,581.9a65.12,65.12,0,0,0,30.58,39" transform="translate(-333.95 -235.97)"/></g><g id="green-mask"><path class="cls-3" d="M771.07,236.08S626.8,225.37,588.81,418.24,668.32,775.45,728,774.76s149-99.41,180.66-289.38S821.75,233,771.07,236.08Z" transform="translate(-333.95 -235.97)"/><path class="cls-4" d="M667.73,410.87s62.42,7.27,64.25,42.51-33.45,92-50.48,110,1.83,45.56,15.41,50.8" transform="translate(-333.95 -235.97)"/><path class="cls-4" d="M755.92,482.45s32.6,26.27,73.32,4.3" transform="translate(-333.95 -235.97)"/><path class="cls-5" d="M896.33,492.3s32.6,26.28,73.33,4.31" transform="translate(-333.95 -235.97)"/></g><g id="blue-mask"><path class="cls-6" d="M604.56,241.35S460.91,256.49,457.62,452.88s141.66,337.48,200.3,326.24,129-124.34,126.68-317.29S654.17,229.42,604.56,241.35Z" transform="translate(-333.95 -235.97)"/><path class="cls-4" d="M527.3,426.34s62.43-7.14,72.24,26.76S588,550.32,575.46,571.72s12.17,43.95,26.58,46" transform="translate(-333.95 -235.97)"/><path class="cls-4" d="M628.62,481.28s36.14,21.14,73.15-6.63" transform="translate(-333.95 -235.97)"/></g><g id="red-mask"><path class="cls-7" d="M448.29,262.77S309,301,337.9,495.48s194.79,309.8,250.76,289.07,107-143.62,73.16-333.66S495.23,242.88,448.29,262.77Z" transform="translate(-333.95 -235.97)"/><path class="cls-4" d="M395.3,450.06s62.43-7.14,72.25,26.76S456,574,443.46,595.44s12.17,43.95,26.58,46" transform="translate(-333.95 -235.97)"/><path class="cls-4" d="M491.52,496.88s36.14,21.14,73.15-6.63" transform="translate(-333.95 -235.97)"/><path class="cls-4" d="M365,519.17s36.14,21.14,73.16-6.64" transform="translate(-333.95 -235.97)"/></g></g></svg>