<svg xmlns="http://www.w3.org/2000/svg" viewBox="0 0 100.85 72.05"><defs><style>.cls-1,.cls-2,.cls-4{fill:none;stroke-linecap:round;stroke-linejoin:round;}.cls-1,.cls-2{stroke:#000;}.cls-2,.cls-4{stroke-width:0.75px;}.cls-3{fill:#13ff00;}.cls-3,.cls-5,.cls-6{opacity:0.5;}.cls-4{stroke:#fff;}.cls-5{fill:#001fff;}.cls-6{fill:red;}</style></defs><g id="maskless"><path class="cls-1" d="M100.24,64a22,22,0,0,0,1.06-25C93,25.33,68.8,26.65,60.78,39s-3.91,27.2-2.56,30.31,7.71,16.34,9,20S86.78,86.91,90,81.84" transform="translate(-4.38 -23.99)"/><path class="cls-2" d="M65.36,48.4s6.47-.83,7.49,7.29-5.38,12.17-5.16,13.53a8.52,8.52,0,0,0,4,5.1" transform="translate(-4.38 -23.99)"/></g><g id="green_mask" data-name="green mask"><path class="cls-3" d="M61.53,24S42.68,22.62,37.71,47.82s10.4,46.71,18.21,46.62,19.49-13,23.66-37.89S68.18,23.62,61.53,24Z" transform="translate(-4.38 -23.99)"/><path class="cls-4" d="M43.49,40.64s8.28-1.18,9.84,9-6.49,15.42-6.17,17.12a10.91,10.91,0,0,0,5.35,6.34" transform="translate(-4.38 -23.99)"/></g><g id="blue_mask" data-name="blue mask"><path class="cls-5" d="M39.77,24.69S21,26.67,20.56,52.35,39.08,96.48,46.75,95,63.62,78.75,63.32,53.52,46.26,23.13,39.77,24.69Z" transform="translate(-4.38 -23.99)"/><path class="cls-4" d="M24.88,44.63s8-2.55,11.21,7.25S32.27,68.17,32.86,69.8a11,11,0,0,0,6.34,5.35" transform="translate(-4.38 -23.99)"/></g><g id="red_mask" data-name="red mask"><path class="cls-6" d="M19.33,27.49s-18.22,5-14.44,30.43,25.48,40.51,32.8,37.8,14-18.79,9.57-43.63S25.47,24.89,19.33,27.49Z" transform="translate(-4.38 -23.99)"/><path class="cls-4" d="M7.77,47s7.82-3,11.56,6.67S16.35,70.1,17,71.7a11,11,0,0,0,6.61,5" transform="translate(-4.38 -23.99)"/></g></svg>